<?xml version="1.0" encoding="UTF-8" standalone="no"?>
<!-- Created with Inkscape (http://www.inkscape.org/) -->

<svg
   width="100mm"
   height="100mm"
   viewBox="0 0 100 100"
   version="1.1"
   id="svg1"
   xml:space="preserve"
   xmlns:xlink="http://www.w3.org/1999/xlink"
   xmlns="http://www.w3.org/2000/svg"
   xmlns:svg="http://www.w3.org/2000/svg"><defs
     id="defs1" /><g
     id="layer1"><path
       id="rect1"
       style="opacity:1;fill:none;stroke:#595656;stroke-width:5;stroke-linecap:round;stroke-linejoin:round;stroke-dasharray:none;stroke-dashoffset:0;stroke-opacity:1;paint-order:stroke fill markers"
       d="m 7.4819469,30.000349 v -22.5184021 0 l 22.5184041,-2e-7" /><path
       id="path101"
       style="opacity:1;fill:none;stroke:#595656;stroke-width:5;stroke-linecap:round;stroke-linejoin:round;stroke-dasharray:none;stroke-dashoffset:0;stroke-opacity:1;paint-order:stroke fill markers"
       d="M 30.000355,92.481977 H 7.4819469 V 69.999751" /><path
       id="path98"
       style="opacity:1;fill:none;stroke:#595656;stroke-width:5;stroke-linecap:round;stroke-linejoin:round;stroke-dasharray:none;stroke-dashoffset:0;stroke-opacity:1;paint-order:stroke fill markers"
       d="m 92.481999,69.999753 10e-7,22.482224 H 69.999768" /><path
       id="path102"
       style="opacity:1;fill:none;stroke:#595656;stroke-width:5;stroke-linecap:round;stroke-linejoin:round;stroke-dasharray:none;stroke-dashoffset:0;stroke-opacity:1;paint-order:stroke fill markers"
       d="M 69.999771,7.4819469 H 92.482 l -3e-6,22.5183971" /><image
       width="120"
       height="99.133331"
       preserveAspectRatio="xMidYMid"
       xlink:href="RoboMaster-mecha-logo.png"
       id="image1"
       x="-6.1852083"
       y="15.235232"
       style="display:none" /><path
       style="fill:#595656;fill-opacity:1;stroke-width:0.999628"
       d="M 82.873457,86.712288 C 82.66548,86.59774 80.944062,85.746818 73.644828,82.15044 70.418797,80.560955 66.698111,78.724911 63.448624,77.118929 61.872544,76.339989 59.683359,75.260161 58.583768,74.719312 56.332897,73.612191 51.149314,71.050424 48.287602,69.630869 l -1.899293,-0.942146 7.747115,-0.01693 c 4.260914,-0.0093 7.747116,-0.03321 7.747116,-0.05309 0,-0.03584 -1.126529,-1.281905 -2.733864,-3.023961 -0.459015,-0.497491 -0.968825,-1.056086 -1.132912,-1.241326 -0.453543,-0.512011 -3.521067,-3.875427 -4.463456,-4.893998 -0.458163,-0.495201 -1.072934,-1.169448 -1.366158,-1.498327 -0.293224,-0.328879 -0.754533,-0.831167 -1.02513,-1.116195 l -0.491996,-0.518233 h 7.796261 c 7.76389,0 8.807298,-0.0245 10.148082,-0.238268 l 0.633098,-0.100938 0.333679,0.352868 c 0.183524,0.194078 0.603367,0.651777 0.932987,1.01711 0.329618,0.365331 0.766949,0.845153 0.971847,1.066269 0.484569,0.522924 5.668073,6.226289 6.056464,6.663877 0.163875,0.184633 0.658691,0.727016 1.099591,1.205297 0.440899,0.478281 1.056541,1.152856 1.368091,1.499056 0.311551,0.3462 0.761384,0.841044 0.999628,1.099655 0.238245,0.258611 0.97542,1.068483 1.638166,1.799716 0.662747,0.731233 1.463313,1.614409 1.779038,1.962612 l 0.574043,0.633098 -7.138632,0.03332 -7.138633,0.03332 0.532577,0.566456 c 0.292918,0.31155 1.428882,1.541092 2.524364,2.732316 1.095483,1.191222 2.697853,2.928717 3.560823,3.861098 4.232273,4.572688 5.180204,5.595895 5.485904,5.921542 0.182163,0.19405 0.319467,0.364558 0.30512,0.378905 -0.01435,0.01435 -0.130477,-0.03141 -0.258065,-0.101682 z M 15.369346,76.330766 c 0.203144,-0.09798 0.885182,-0.418066 1.51564,-0.711291 0.630459,-0.293224 1.15905,-0.578117 1.174645,-0.633097 0.01559,-0.05498 0.223715,-0.8047 0.462486,-1.666046 0.238771,-0.861346 0.630078,-2.270821 0.869571,-3.132168 0.239494,-0.861345 0.568362,-2.060898 0.73082,-2.665673 0.162457,-0.604775 0.465387,-1.714362 0.673175,-2.465749 0.207789,-0.751387 0.617691,-2.235835 0.910895,-3.298772 0.293203,-1.062937 0.753896,-2.727317 1.023762,-3.698623 0.269866,-0.971304 0.609153,-2.200846 0.753972,-2.732316 0.468744,-1.720238 0.947272,-3.462852 1.409112,-5.131422 0.248553,-0.898 0.682885,-2.472414 0.965182,-3.498697 0.282296,-1.026285 0.728561,-2.630688 0.991699,-3.56534 l 0.478433,-1.699367 19.592705,-0.03332 19.592706,-0.03332 0.533135,-0.187436 c 1.770401,-0.622421 3.057725,-1.975035 3.542718,-3.7224 0.164394,-0.592284 0.164394,-2.1841 0,-2.776385 -0.170674,-0.614917 -0.392753,-1.08179 -0.783321,-1.646767 -0.602368,-0.871356 -1.403148,-1.517819 -2.349562,-1.896782 -1.065082,-0.426479 -0.312814,-0.399607 -11.186497,-0.399607 -5.453598,0 -9.915634,0.017 -9.915634,0.03779 0,0.02078 0.742224,0.851728 1.649386,1.846548 0.907162,0.994821 2.264157,2.485936 3.015543,3.313589 0.751388,0.827653 1.843003,2.028448 2.425814,2.668436 l 1.059656,1.163615 -9.45653,0.01809 -9.456529,0.01809 -0.227121,-0.25134 c -0.124918,-0.138237 -0.350204,-0.38629 -0.500636,-0.551229 -0.150432,-0.164938 -0.737514,-0.809698 -1.304626,-1.432799 -0.567113,-0.623102 -1.361447,-1.493034 -1.765189,-1.933184 -0.403741,-0.440151 -1.168912,-1.277585 -1.700381,-1.860966 -0.531469,-0.58338 -1.367136,-1.496069 -1.857037,-2.028195 -0.84729,-0.920318 -1.015849,-1.156199 -3.456165,-4.836542 -1.410988,-2.12797 -3.40172,-5.128568 -4.42385,-6.667995 l -1.858416,-2.798958 23.574449,-0.0196 c 16.693857,-0.01389 23.865463,0.0018 24.57153,0.0538 4.557228,0.335482 8.438521,2.074385 11.823441,5.297155 2.212933,2.106926 4.114298,5.365185 4.944825,8.473659 0.825293,3.088889 0.796102,6.908611 -0.07586,9.927315 -1.250789,4.33016 -4.040318,8.093854 -7.826487,10.559669 -1.571338,1.023363 -3.874932,2.006492 -5.831162,2.488626 -1.720542,0.424045 -0.786139,0.398672 -15.427589,0.418936 -7.330605,0.01015 -13.392456,0.0335 -13.470783,0.05188 -0.10209,0.02397 -0.155693,0.104369 -0.189323,0.283965 -0.0258,0.13779 -0.181317,0.715355 -0.345588,1.283476 -0.164269,0.568123 -0.473367,1.677709 -0.686884,2.465749 -0.213515,0.78804 -0.558084,2.047571 -0.765709,2.798958 -0.936116,3.387777 -1.465258,5.30522 -1.967799,7.130678 -0.297667,1.081265 -0.731936,2.655678 -0.965042,3.498697 -0.233106,0.84302 -0.597982,2.170026 -0.810836,2.948903 l -0.387007,1.416138 -9.831541,-0.0051 -9.831541,-0.0051 z"
       id="path60" /></g></svg>
